<svg xmlns="http://www.w3.org/2000/svg" xmlns:xlink="http://www.w3.org/1999/xlink" width="500" zoomAndPan="magnify" viewBox="0 0 375 374.999991" height="500" preserveAspectRatio="xMidYMid meet" version="1.0"><defs><g/><clipPath id="a477470117"><path d="M 30.449219 154.246094 L 80.699219 154.246094 L 80.699219 220.996094 L 30.449219 220.996094 Z M 30.449219 154.246094 " clip-rule="nonzero"/></clipPath></defs><g clip-path="url(#a477470117)"><path fill="#ffffff" d="M 30.480469 154.246094 L 30.480469 168.214844 L 32.875 168.214844 L 32.875 156.644531 L 45.398438 156.644531 L 45.398438 154.246094 Z M 42.3125 185.324219 C 43.59375 185.324219 44.785156 184.628906 45.417969 183.511719 L 43.644531 182.507812 C 43.375 182.988281 42.863281 183.289062 42.3125 183.289062 C 41.46875 183.289062 40.78125 182.601562 40.78125 181.757812 C 40.78125 180.914062 41.46875 180.226562 42.3125 180.226562 L 68.949219 180.226562 C 69.792969 180.226562 70.480469 180.914062 70.480469 181.757812 C 70.480469 182.601562 69.792969 183.289062 68.949219 183.289062 C 68.398438 183.289062 67.886719 182.988281 67.617188 182.507812 L 65.84375 183.511719 C 66.476562 184.628906 67.667969 185.324219 68.949219 185.324219 C 70.914062 185.324219 72.515625 183.722656 72.515625 181.757812 C 72.515625 179.847656 71.003906 178.28125 69.113281 178.195312 L 42.148438 178.191406 L 42.148438 178.195312 C 40.257812 178.28125 38.746094 179.847656 38.746094 181.757812 C 38.746094 183.722656 40.34375 185.324219 42.3125 185.324219 Z M 62.953125 213.273438 L 64.988281 213.273438 L 64.988281 185.320312 L 62.953125 185.320312 Z M 72.039062 218.71875 L 39.222656 218.71875 L 39.222656 220.753906 L 72.039062 220.753906 Z M 47.289062 183.53125 L 63.972656 183.53125 L 63.972656 181.496094 L 47.289062 181.496094 Z M 59.429688 213.273438 L 59.429688 185.320312 L 57.394531 185.320312 L 57.394531 213.273438 Z M 53.867188 213.273438 L 53.867188 185.320312 L 51.832031 185.320312 L 51.832031 213.273438 Z M 46.273438 213.273438 L 48.308594 213.273438 L 48.308594 185.320312 L 46.273438 185.320312 Z M 69.871094 174.355469 L 55.628906 169.878906 L 41.390625 174.355469 L 41.390625 176.390625 L 69.871094 176.390625 Z M 80.78125 217.320312 L 30.480469 217.320312 L 30.480469 190.59375 L 32.875 190.59375 L 32.875 214.921875 L 78.382812 214.921875 L 78.382812 168.214844 L 80.78125 168.214844 L 80.78125 217.320312 " fill-opacity="1" fill-rule="nonzero"/></g><path stroke-linecap="round" transform="matrix(0.75, 0, 0, 0.75, 90.549044, 195.254577)" fill="none" stroke-linejoin="miter" d="M 0.502316 0.499106 L 258.033583 0.499106 " stroke="#ffffff" stroke-width="1" stroke-opacity="1" stroke-miterlimit="4"/><g fill="#ffffff" fill-opacity="1"><g transform="translate(110.138284, 184.597327)"><g><path d="M 1.765625 -10.6875 C 1.765625 -11.269531 1.753906 -11.773438 1.734375 -12.203125 C 1.722656 -12.640625 1.703125 -13.015625 1.671875 -13.328125 C 1.648438 -13.648438 1.617188 -13.914062 1.578125 -14.125 C 1.546875 -14.34375 1.507812 -14.519531 1.46875 -14.65625 L 1.46875 -14.703125 C 1.601562 -14.691406 1.742188 -14.6875 1.890625 -14.6875 C 2.023438 -14.6875 2.171875 -14.6875 2.328125 -14.6875 C 2.492188 -14.6875 2.660156 -14.6875 2.828125 -14.6875 C 3.078125 -14.6875 3.410156 -14.707031 3.828125 -14.75 C 4.242188 -14.800781 4.785156 -14.828125 5.453125 -14.828125 C 6.066406 -14.828125 6.632812 -14.742188 7.15625 -14.578125 C 7.675781 -14.421875 8.125 -14.191406 8.5 -13.890625 C 8.882812 -13.585938 9.179688 -13.21875 9.390625 -12.78125 C 9.609375 -12.34375 9.71875 -11.84375 9.71875 -11.28125 C 9.71875 -10.8125 9.648438 -10.390625 9.515625 -10.015625 C 9.390625 -9.640625 9.207031 -9.3125 8.96875 -9.03125 C 8.738281 -8.757812 8.457031 -8.53125 8.125 -8.34375 C 7.789062 -8.15625 7.425781 -8.003906 7.03125 -7.890625 C 7.613281 -7.804688 8.144531 -7.660156 8.625 -7.453125 C 9.101562 -7.242188 9.515625 -6.976562 9.859375 -6.65625 C 10.203125 -6.34375 10.46875 -5.976562 10.65625 -5.5625 C 10.84375 -5.144531 10.9375 -4.675781 10.9375 -4.15625 C 10.9375 -2.71875 10.460938 -1.632812 9.515625 -0.90625 C 8.566406 -0.1875 7.144531 0.171875 5.25 0.171875 C 5.039062 0.171875 4.800781 0.160156 4.53125 0.140625 C 4.257812 0.117188 3.976562 0.0976562 3.6875 0.078125 C 3.40625 0.0546875 3.128906 0.0351562 2.859375 0.015625 C 2.585938 0.00390625 2.347656 0 2.140625 0 L 1.46875 0 L 1.46875 -0.046875 C 1.507812 -0.179688 1.546875 -0.351562 1.578125 -0.5625 C 1.617188 -0.78125 1.648438 -1.046875 1.671875 -1.359375 C 1.703125 -1.671875 1.722656 -2.046875 1.734375 -2.484375 C 1.753906 -2.921875 1.765625 -3.429688 1.765625 -4.015625 Z M 5.53125 -7.265625 C 5.0625 -7.265625 4.671875 -7.25 4.359375 -7.21875 C 4.046875 -7.1875 3.800781 -7.148438 3.625 -7.109375 L 3.625 -4.015625 C 3.625 -3.210938 3.640625 -2.550781 3.671875 -2.03125 C 3.703125 -1.507812 3.738281 -1.085938 3.78125 -0.765625 C 4.039062 -0.722656 4.300781 -0.6875 4.5625 -0.65625 C 4.820312 -0.632812 5.03125 -0.625 5.1875 -0.625 C 6.46875 -0.625 7.398438 -0.910156 7.984375 -1.484375 C 8.578125 -2.054688 8.875 -2.929688 8.875 -4.109375 C 8.875 -4.578125 8.800781 -5.003906 8.65625 -5.390625 C 8.519531 -5.773438 8.3125 -6.109375 8.03125 -6.390625 C 7.757812 -6.671875 7.414062 -6.882812 7 -7.03125 C 6.582031 -7.1875 6.09375 -7.265625 5.53125 -7.265625 Z M 3.625 -8.046875 C 3.820312 -8.023438 3.992188 -8.007812 4.140625 -8 C 4.296875 -8 4.457031 -8 4.625 -8 C 5.09375 -8 5.515625 -8.0625 5.890625 -8.1875 C 6.273438 -8.320312 6.601562 -8.523438 6.875 -8.796875 C 7.144531 -9.066406 7.351562 -9.398438 7.5 -9.796875 C 7.65625 -10.191406 7.734375 -10.660156 7.734375 -11.203125 C 7.734375 -11.640625 7.675781 -12.039062 7.5625 -12.40625 C 7.457031 -12.769531 7.296875 -13.078125 7.078125 -13.328125 C 6.859375 -13.585938 6.59375 -13.785156 6.28125 -13.921875 C 5.96875 -14.054688 5.609375 -14.125 5.203125 -14.125 C 4.941406 -14.125 4.710938 -14.113281 4.515625 -14.09375 C 4.328125 -14.070312 4.164062 -14.050781 4.03125 -14.03125 C 3.875 -14 3.738281 -13.960938 3.625 -13.921875 Z M 3.625 -8.046875 "/></g></g></g><g fill="#ffffff" fill-opacity="1"><g transform="translate(124.020021, 184.597327)"><g><path d="M 11.640625 0 L 11.640625 -0.046875 C 11.648438 -0.078125 11.65625 -0.125 11.65625 -0.1875 C 11.664062 -0.257812 11.671875 -0.320312 11.671875 -0.375 C 11.671875 -0.59375 11.640625 -0.828125 11.578125 -1.078125 C 11.523438 -1.335938 11.421875 -1.660156 11.265625 -2.046875 L 10.015625 -4.828125 C 9.628906 -4.835938 9.117188 -4.84375 8.484375 -4.84375 C 7.847656 -4.84375 7.160156 -4.84375 6.421875 -4.84375 C 5.890625 -4.84375 5.367188 -4.84375 4.859375 -4.84375 C 4.359375 -4.84375 3.90625 -4.835938 3.5 -4.828125 L 2.328125 -2.125 C 2.222656 -1.875 2.113281 -1.597656 2 -1.296875 C 1.882812 -0.992188 1.828125 -0.6875 1.828125 -0.375 C 1.828125 -0.289062 1.832031 -0.21875 1.84375 -0.15625 C 1.851562 -0.101562 1.867188 -0.0664062 1.890625 -0.046875 L 1.890625 0 L -0.203125 0 L -0.203125 -0.046875 C -0.078125 -0.171875 0.0703125 -0.398438 0.25 -0.734375 C 0.4375 -1.066406 0.640625 -1.484375 0.859375 -1.984375 L 6.734375 -15.015625 L 7.5625 -15.015625 L 13.125 -2.484375 C 13.25 -2.191406 13.378906 -1.90625 13.515625 -1.625 C 13.660156 -1.34375 13.796875 -1.09375 13.921875 -0.875 C 14.046875 -0.65625 14.15625 -0.472656 14.25 -0.328125 C 14.34375 -0.179688 14.410156 -0.0859375 14.453125 -0.046875 L 14.453125 0 Z M 5 -5.734375 C 5.394531 -5.734375 5.800781 -5.734375 6.21875 -5.734375 C 6.632812 -5.742188 7.039062 -5.75 7.4375 -5.75 C 7.84375 -5.75 8.226562 -5.75 8.59375 -5.75 C 8.957031 -5.757812 9.289062 -5.765625 9.59375 -5.765625 L 6.71875 -12.28125 L 3.890625 -5.734375 Z M 5 -5.734375 "/></g></g></g><g fill="#ffffff" fill-opacity="1"><g transform="translate(140.362695, 184.597327)"><g><path d="M 7.171875 2.921875 C 7.171875 3.191406 7.101562 3.4375 6.96875 3.65625 C 6.84375 3.875 6.664062 4.054688 6.4375 4.203125 C 6.207031 4.359375 5.9375 4.476562 5.625 4.5625 C 5.320312 4.644531 4.988281 4.6875 4.625 4.6875 C 4.195312 4.6875 3.796875 4.640625 3.421875 4.546875 C 3.054688 4.453125 2.710938 4.320312 2.390625 4.15625 L 2.578125 3.6875 C 2.671875 3.726562 2.769531 3.773438 2.875 3.828125 C 2.988281 3.878906 3.113281 3.925781 3.25 3.96875 C 3.382812 4.007812 3.535156 4.039062 3.703125 4.0625 C 3.867188 4.09375 4.054688 4.109375 4.265625 4.109375 C 4.710938 4.109375 5.078125 4 5.359375 3.78125 C 5.648438 3.5625 5.796875 3.273438 5.796875 2.921875 C 5.796875 2.535156 5.660156 2.25 5.390625 2.0625 C 5.128906 1.875 4.800781 1.78125 4.40625 1.78125 C 4.34375 1.78125 4.257812 1.785156 4.15625 1.796875 C 4.0625 1.804688 3.984375 1.816406 3.921875 1.828125 L 4.46875 0.3125 C 4.082031 0.3125 3.71875 0.273438 3.375 0.203125 C 3.03125 0.128906 2.710938 0.0390625 2.421875 -0.0625 C 2.128906 -0.164062 1.863281 -0.273438 1.625 -0.390625 C 1.382812 -0.515625 1.191406 -0.628906 1.046875 -0.734375 L 1.28125 -3 L 1.53125 -3 C 1.613281 -2.675781 1.738281 -2.367188 1.90625 -2.078125 C 2.070312 -1.796875 2.28125 -1.539062 2.53125 -1.3125 C 2.78125 -1.09375 3.066406 -0.914062 3.390625 -0.78125 C 3.710938 -0.644531 4.066406 -0.578125 4.453125 -0.578125 C 4.796875 -0.578125 5.101562 -0.628906 5.375 -0.734375 C 5.65625 -0.847656 5.894531 -1 6.09375 -1.1875 C 6.300781 -1.375 6.457031 -1.597656 6.5625 -1.859375 C 6.664062 -2.117188 6.71875 -2.398438 6.71875 -2.703125 C 6.71875 -3.140625 6.640625 -3.539062 6.484375 -3.90625 C 6.328125 -4.269531 6.117188 -4.613281 5.859375 -4.9375 C 5.597656 -5.269531 5.304688 -5.585938 4.984375 -5.890625 C 4.660156 -6.203125 4.328125 -6.515625 3.984375 -6.828125 C 3.640625 -7.140625 3.304688 -7.457031 2.984375 -7.78125 C 2.660156 -8.113281 2.367188 -8.460938 2.109375 -8.828125 C 1.859375 -9.203125 1.65625 -9.601562 1.5 -10.03125 C 1.34375 -10.457031 1.265625 -10.925781 1.265625 -11.4375 C 1.265625 -11.976562 1.367188 -12.46875 1.578125 -12.90625 C 1.785156 -13.34375 2.0625 -13.710938 2.40625 -14.015625 C 2.75 -14.328125 3.140625 -14.5625 3.578125 -14.71875 C 4.015625 -14.882812 4.46875 -14.96875 4.9375 -14.96875 C 5.269531 -14.96875 5.582031 -14.941406 5.875 -14.890625 C 6.164062 -14.835938 6.425781 -14.769531 6.65625 -14.6875 C 6.882812 -14.613281 7.082031 -14.539062 7.25 -14.46875 C 7.414062 -14.394531 7.554688 -14.332031 7.671875 -14.28125 L 7.59375 -12.359375 L 7.375 -12.359375 C 7.320312 -12.523438 7.234375 -12.707031 7.109375 -12.90625 C 6.992188 -13.101562 6.835938 -13.285156 6.640625 -13.453125 C 6.441406 -13.628906 6.203125 -13.773438 5.921875 -13.890625 C 5.648438 -14.003906 5.328125 -14.0625 4.953125 -14.0625 C 4.617188 -14.0625 4.320312 -14.007812 4.0625 -13.90625 C 3.800781 -13.8125 3.582031 -13.671875 3.40625 -13.484375 C 3.226562 -13.296875 3.09375 -13.078125 3 -12.828125 C 2.914062 -12.578125 2.875 -12.296875 2.875 -11.984375 C 2.875 -11.492188 3.015625 -11.023438 3.296875 -10.578125 C 3.578125 -10.128906 3.925781 -9.6875 4.34375 -9.25 C 4.757812 -8.8125 5.207031 -8.375 5.6875 -7.9375 C 6.175781 -7.5 6.628906 -7.039062 7.046875 -6.5625 C 7.460938 -6.09375 7.804688 -5.597656 8.078125 -5.078125 C 8.359375 -4.566406 8.5 -4.015625 8.5 -3.421875 C 8.5 -3.003906 8.429688 -2.582031 8.296875 -2.15625 C 8.160156 -1.726562 7.945312 -1.34375 7.65625 -1 C 7.375 -0.65625 7.007812 -0.363281 6.5625 -0.125 C 6.113281 0.101562 5.578125 0.242188 4.953125 0.296875 L 4.578125 1.328125 C 4.660156 1.304688 4.738281 1.289062 4.8125 1.28125 C 4.894531 1.28125 4.988281 1.28125 5.09375 1.28125 C 5.46875 1.28125 5.785156 1.328125 6.046875 1.421875 C 6.316406 1.523438 6.535156 1.65625 6.703125 1.8125 C 6.867188 1.96875 6.988281 2.144531 7.0625 2.34375 C 7.132812 2.539062 7.171875 2.734375 7.171875 2.921875 Z M 7.171875 2.921875 "/></g></g></g><g fill="#ffffff" fill-opacity="1"><g transform="translate(152.019334, 184.597327)"><g><path d="M 11.640625 0 L 11.640625 -0.046875 C 11.648438 -0.078125 11.65625 -0.125 11.65625 -0.1875 C 11.664062 -0.257812 11.671875 -0.320312 11.671875 -0.375 C 11.671875 -0.59375 11.640625 -0.828125 11.578125 -1.078125 C 11.523438 -1.335938 11.421875 -1.660156 11.265625 -2.046875 L 10.015625 -4.828125 C 9.628906 -4.835938 9.117188 -4.84375 8.484375 -4.84375 C 7.847656 -4.84375 7.160156 -4.84375 6.421875 -4.84375 C 5.890625 -4.84375 5.367188 -4.84375 4.859375 -4.84375 C 4.359375 -4.84375 3.90625 -4.835938 3.5 -4.828125 L 2.328125 -2.125 C 2.222656 -1.875 2.113281 -1.597656 2 -1.296875 C 1.882812 -0.992188 1.828125 -0.6875 1.828125 -0.375 C 1.828125 -0.289062 1.832031 -0.21875 1.84375 -0.15625 C 1.851562 -0.101562 1.867188 -0.0664062 1.890625 -0.046875 L 1.890625 0 L -0.203125 0 L -0.203125 -0.046875 C -0.078125 -0.171875 0.0703125 -0.398438 0.25 -0.734375 C 0.4375 -1.066406 0.640625 -1.484375 0.859375 -1.984375 L 6.734375 -15.015625 L 7.5625 -15.015625 L 13.125 -2.484375 C 13.25 -2.191406 13.378906 -1.90625 13.515625 -1.625 C 13.660156 -1.34375 13.796875 -1.09375 13.921875 -0.875 C 14.046875 -0.65625 14.15625 -0.472656 14.25 -0.328125 C 14.34375 -0.179688 14.410156 -0.0859375 14.453125 -0.046875 L 14.453125 0 Z M 5 -5.734375 C 5.394531 -5.734375 5.800781 -5.734375 6.21875 -5.734375 C 6.632812 -5.742188 7.039062 -5.75 7.4375 -5.75 C 7.84375 -5.75 8.226562 -5.75 8.59375 -5.75 C 8.957031 -5.757812 9.289062 -5.765625 9.59375 -5.765625 L 6.71875 -12.28125 L 3.890625 -5.734375 Z M 5 -5.734375 "/></g></g></g><g fill="#ffffff" fill-opacity="1"><g transform="translate(168.362009, 184.597327)"><g><path d="M 1.46875 -0.046875 C 1.507812 -0.179688 1.546875 -0.351562 1.578125 -0.5625 C 1.617188 -0.78125 1.648438 -1.046875 1.671875 -1.359375 C 1.703125 -1.671875 1.722656 -2.046875 1.734375 -2.484375 C 1.753906 -2.921875 1.765625 -3.429688 1.765625 -4.015625 L 1.765625 -10.6875 C 1.765625 -11.269531 1.753906 -11.773438 1.734375 -12.203125 C 1.722656 -12.640625 1.703125 -13.015625 1.671875 -13.328125 C 1.648438 -13.648438 1.617188 -13.914062 1.578125 -14.125 C 1.546875 -14.34375 1.507812 -14.519531 1.46875 -14.65625 L 1.46875 -14.703125 L 3.921875 -14.703125 L 3.921875 -14.65625 C 3.878906 -14.519531 3.835938 -14.34375 3.796875 -14.125 C 3.765625 -13.914062 3.738281 -13.648438 3.71875 -13.328125 C 3.695312 -13.015625 3.675781 -12.640625 3.65625 -12.203125 C 3.632812 -11.773438 3.625 -11.269531 3.625 -10.6875 L 3.625 -8.390625 L 9.625 -13.296875 C 10.289062 -13.835938 10.625 -14.304688 10.625 -14.703125 L 13.5 -14.703125 L 13.5 -14.65625 C 13.101562 -14.5625 12.695312 -14.378906 12.28125 -14.109375 C 11.863281 -13.835938 11.425781 -13.507812 10.96875 -13.125 L 5.671875 -8.703125 L 12.03125 -1.703125 C 12.300781 -1.429688 12.53125 -1.203125 12.71875 -1.015625 C 12.90625 -0.835938 13.070312 -0.6875 13.21875 -0.5625 C 13.363281 -0.445312 13.492188 -0.347656 13.609375 -0.265625 C 13.734375 -0.191406 13.859375 -0.117188 13.984375 -0.046875 L 13.984375 0 L 10.984375 0 C 10.953125 -0.0625 10.90625 -0.140625 10.84375 -0.234375 C 10.78125 -0.328125 10.703125 -0.425781 10.609375 -0.53125 C 10.523438 -0.632812 10.429688 -0.738281 10.328125 -0.84375 C 10.234375 -0.957031 10.144531 -1.0625 10.0625 -1.15625 L 3.625 -8.21875 L 3.625 -4.015625 C 3.625 -3.429688 3.632812 -2.921875 3.65625 -2.484375 C 3.675781 -2.046875 3.695312 -1.671875 3.71875 -1.359375 C 3.738281 -1.046875 3.765625 -0.78125 3.796875 -0.5625 C 3.835938 -0.351562 3.878906 -0.179688 3.921875 -0.046875 L 3.921875 0 L 1.46875 0 Z M 1.46875 -0.046875 "/></g></g></g><g fill="#ffffff" fill-opacity="1"><g transform="translate(184.027928, 184.597327)"><g/></g></g><g fill="#ffffff" fill-opacity="1"><g transform="translate(192.423828, 184.597327)"><g><path d="M 5.328125 -13.796875 C 4.523438 -13.796875 3.796875 -13.757812 3.140625 -13.6875 C 2.492188 -13.625 1.9375 -13.550781 1.46875 -13.46875 C 0.914062 -13.363281 0.425781 -13.25 0 -13.125 L 0.296875 -14.78125 C 0.378906 -14.78125 0.5 -14.773438 0.65625 -14.765625 C 0.820312 -14.753906 1.003906 -14.742188 1.203125 -14.734375 C 1.410156 -14.734375 1.625 -14.726562 1.84375 -14.71875 C 2.070312 -14.71875 2.285156 -14.71875 2.484375 -14.71875 C 2.679688 -14.71875 2.851562 -14.710938 3 -14.703125 C 3.15625 -14.703125 3.269531 -14.703125 3.34375 -14.703125 L 9.203125 -14.703125 C 9.265625 -14.703125 9.375 -14.703125 9.53125 -14.703125 C 9.6875 -14.710938 9.863281 -14.71875 10.0625 -14.71875 C 10.257812 -14.71875 10.46875 -14.71875 10.6875 -14.71875 C 10.90625 -14.726562 11.113281 -14.734375 11.3125 -14.734375 C 11.519531 -14.742188 11.707031 -14.753906 11.875 -14.765625 C 12.039062 -14.773438 12.164062 -14.78125 12.25 -14.78125 L 12.546875 -13.125 C 12.109375 -13.25 11.613281 -13.363281 11.0625 -13.46875 C 10.59375 -13.550781 10.03125 -13.625 9.375 -13.6875 C 8.726562 -13.757812 8.003906 -13.796875 7.203125 -13.796875 L 7.203125 -4.015625 C 7.203125 -3.429688 7.207031 -2.921875 7.21875 -2.484375 C 7.238281 -2.046875 7.257812 -1.671875 7.28125 -1.359375 C 7.3125 -1.046875 7.34375 -0.78125 7.375 -0.5625 C 7.414062 -0.351562 7.457031 -0.179688 7.5 -0.046875 L 7.5 0 L 5.046875 0 L 5.046875 -0.046875 C 5.085938 -0.179688 5.125 -0.351562 5.15625 -0.5625 C 5.1875 -0.78125 5.21875 -1.046875 5.25 -1.359375 C 5.28125 -1.671875 5.300781 -2.046875 5.3125 -2.484375 C 5.320312 -2.921875 5.328125 -3.429688 5.328125 -4.015625 Z M 5.328125 -13.796875 "/></g></g></g><g fill="#ffffff" fill-opacity="1"><g transform="translate(207.064357, 184.597327)"><g><path d="M 1.46875 -14.703125 C 2.320312 -14.703125 3.171875 -14.703125 4.015625 -14.703125 C 4.859375 -14.710938 5.628906 -14.722656 6.328125 -14.734375 C 7.035156 -14.742188 7.640625 -14.757812 8.140625 -14.78125 C 8.640625 -14.800781 8.976562 -14.832031 9.15625 -14.875 L 8.65625 -13.5 C 8.425781 -13.5625 8.160156 -13.617188 7.859375 -13.671875 C 7.597656 -13.710938 7.28125 -13.75 6.90625 -13.78125 C 6.539062 -13.820312 6.113281 -13.84375 5.625 -13.84375 C 5.46875 -13.84375 5.273438 -13.835938 5.046875 -13.828125 C 4.816406 -13.816406 4.59375 -13.804688 4.375 -13.796875 C 4.132812 -13.773438 3.882812 -13.757812 3.625 -13.75 L 3.625 -8.15625 C 4.332031 -8.15625 4.96875 -8.171875 5.53125 -8.203125 C 6.101562 -8.242188 6.585938 -8.28125 6.984375 -8.3125 C 7.453125 -8.351562 7.863281 -8.398438 8.21875 -8.453125 L 7.890625 -6.96875 C 7.421875 -7.03125 6.941406 -7.085938 6.453125 -7.140625 C 6.023438 -7.191406 5.5625 -7.234375 5.0625 -7.265625 C 4.5625 -7.304688 4.082031 -7.328125 3.625 -7.328125 L 3.625 -0.90625 C 4.4375 -0.90625 5.179688 -0.9375 5.859375 -1 C 6.535156 -1.070312 7.125 -1.148438 7.625 -1.234375 C 8.21875 -1.335938 8.753906 -1.453125 9.234375 -1.578125 L 8.9375 0.078125 C 8.851562 0.078125 8.726562 0.0703125 8.5625 0.0625 C 8.40625 0.0507812 8.222656 0.0390625 8.015625 0.03125 C 7.816406 0.03125 7.609375 0.0234375 7.390625 0.015625 C 7.171875 0.015625 6.957031 0.015625 6.75 0.015625 C 6.550781 0.015625 6.375 0.0078125 6.21875 0 C 6.070312 0 5.960938 0 5.890625 0 L 1.46875 0 L 1.46875 -0.046875 C 1.507812 -0.179688 1.546875 -0.351562 1.578125 -0.5625 C 1.617188 -0.78125 1.648438 -1.046875 1.671875 -1.359375 C 1.703125 -1.671875 1.722656 -2.046875 1.734375 -2.484375 C 1.753906 -2.921875 1.765625 -3.429688 1.765625 -4.015625 L 1.765625 -10.6875 C 1.765625 -11.269531 1.753906 -11.773438 1.734375 -12.203125 C 1.722656 -12.640625 1.703125 -13.015625 1.671875 -13.328125 C 1.648438 -13.648438 1.617188 -13.914062 1.578125 -14.125 C 1.546875 -14.34375 1.507812 -14.519531 1.46875 -14.65625 Z M 1.46875 -14.703125 "/></g></g></g><g fill="#ffffff" fill-opacity="1"><g transform="translate(219.45928, 184.597327)"><g><path d="M 1.46875 -0.046875 C 1.507812 -0.179688 1.546875 -0.351562 1.578125 -0.5625 C 1.617188 -0.78125 1.648438 -1.046875 1.671875 -1.359375 C 1.703125 -1.671875 1.722656 -2.046875 1.734375 -2.484375 C 1.753906 -2.921875 1.765625 -3.429688 1.765625 -4.015625 L 1.765625 -10.6875 C 1.765625 -11.269531 1.753906 -11.773438 1.734375 -12.203125 C 1.722656 -12.640625 1.703125 -13.015625 1.671875 -13.328125 C 1.648438 -13.648438 1.617188 -13.914062 1.578125 -14.125 C 1.546875 -14.34375 1.507812 -14.519531 1.46875 -14.65625 L 1.46875 -14.703125 L 3.921875 -14.703125 L 3.921875 -14.65625 C 3.878906 -14.519531 3.835938 -14.34375 3.796875 -14.125 C 3.765625 -13.914062 3.738281 -13.648438 3.71875 -13.328125 C 3.695312 -13.015625 3.675781 -12.640625 3.65625 -12.203125 C 3.632812 -11.773438 3.625 -11.269531 3.625 -10.6875 L 3.625 -8.390625 L 9.625 -13.296875 C 10.289062 -13.835938 10.625 -14.304688 10.625 -14.703125 L 13.5 -14.703125 L 13.5 -14.65625 C 13.101562 -14.5625 12.695312 -14.378906 12.28125 -14.109375 C 11.863281 -13.835938 11.425781 -13.507812 10.96875 -13.125 L 5.671875 -8.703125 L 12.03125 -1.703125 C 12.300781 -1.429688 12.53125 -1.203125 12.71875 -1.015625 C 12.90625 -0.835938 13.070312 -0.6875 13.21875 -0.5625 C 13.363281 -0.445312 13.492188 -0.347656 13.609375 -0.265625 C 13.734375 -0.191406 13.859375 -0.117188 13.984375 -0.046875 L 13.984375 0 L 10.984375 0 C 10.953125 -0.0625 10.90625 -0.140625 10.84375 -0.234375 C 10.78125 -0.328125 10.703125 -0.425781 10.609375 -0.53125 C 10.523438 -0.632812 10.429688 -0.738281 10.328125 -0.84375 C 10.234375 -0.957031 10.144531 -1.0625 10.0625 -1.15625 L 3.625 -8.21875 L 3.625 -4.015625 C 3.625 -3.429688 3.632812 -2.921875 3.65625 -2.484375 C 3.675781 -2.046875 3.695312 -1.671875 3.71875 -1.359375 C 3.738281 -1.046875 3.765625 -0.78125 3.796875 -0.5625 C 3.835938 -0.351562 3.878906 -0.179688 3.921875 -0.046875 L 3.921875 0 L 1.46875 0 Z M 1.46875 -0.046875 "/></g></g></g><g fill="#ffffff" fill-opacity="1"><g transform="translate(235.1252, 184.597327)"><g><path d="M 1.46875 -14.703125 C 2.320312 -14.703125 3.171875 -14.703125 4.015625 -14.703125 C 4.859375 -14.710938 5.628906 -14.722656 6.328125 -14.734375 C 7.035156 -14.742188 7.640625 -14.757812 8.140625 -14.78125 C 8.640625 -14.800781 8.976562 -14.832031 9.15625 -14.875 L 8.65625 -13.5 C 8.425781 -13.5625 8.160156 -13.617188 7.859375 -13.671875 C 7.597656 -13.710938 7.28125 -13.75 6.90625 -13.78125 C 6.539062 -13.820312 6.113281 -13.84375 5.625 -13.84375 C 5.46875 -13.84375 5.273438 -13.835938 5.046875 -13.828125 C 4.816406 -13.816406 4.59375 -13.804688 4.375 -13.796875 C 4.132812 -13.773438 3.882812 -13.757812 3.625 -13.75 L 3.625 -8.15625 C 4.332031 -8.15625 4.96875 -8.171875 5.53125 -8.203125 C 6.101562 -8.242188 6.585938 -8.28125 6.984375 -8.3125 C 7.453125 -8.351562 7.863281 -8.398438 8.21875 -8.453125 L 7.890625 -6.96875 C 7.421875 -7.03125 6.941406 -7.085938 6.453125 -7.140625 C 6.023438 -7.191406 5.5625 -7.234375 5.0625 -7.265625 C 4.5625 -7.304688 4.082031 -7.328125 3.625 -7.328125 L 3.625 -0.90625 C 4.4375 -0.90625 5.179688 -0.9375 5.859375 -1 C 6.535156 -1.070312 7.125 -1.148438 7.625 -1.234375 C 8.21875 -1.335938 8.753906 -1.453125 9.234375 -1.578125 L 8.9375 0.078125 C 8.851562 0.078125 8.726562 0.0703125 8.5625 0.0625 C 8.40625 0.0507812 8.222656 0.0390625 8.015625 0.03125 C 7.816406 0.03125 7.609375 0.0234375 7.390625 0.015625 C 7.171875 0.015625 6.957031 0.015625 6.75 0.015625 C 6.550781 0.015625 6.375 0.0078125 6.21875 0 C 6.070312 0 5.960938 0 5.890625 0 L 1.46875 0 L 1.46875 -0.046875 C 1.507812 -0.179688 1.546875 -0.351562 1.578125 -0.5625 C 1.617188 -0.78125 1.648438 -1.046875 1.671875 -1.359375 C 1.703125 -1.671875 1.722656 -2.046875 1.734375 -2.484375 C 1.753906 -2.921875 1.765625 -3.429688 1.765625 -4.015625 L 1.765625 -10.6875 C 1.765625 -11.269531 1.753906 -11.773438 1.734375 -12.203125 C 1.722656 -12.640625 1.703125 -13.015625 1.671875 -13.328125 C 1.648438 -13.648438 1.617188 -13.914062 1.578125 -14.125 C 1.546875 -14.34375 1.507812 -14.519531 1.46875 -14.65625 Z M 1.46875 -14.703125 "/></g></g></g><g fill="#ffffff" fill-opacity="1"><g transform="translate(247.520123, 184.597327)"><g><path d="M 3.625 -0.90625 C 4.4375 -0.90625 5.179688 -0.9375 5.859375 -1 C 6.535156 -1.070312 7.125 -1.148438 7.625 -1.234375 C 8.21875 -1.335938 8.753906 -1.453125 9.234375 -1.578125 L 8.9375 0.078125 C 8.851562 0.078125 8.726562 0.0703125 8.5625 0.0625 C 8.40625 0.0507812 8.222656 0.0390625 8.015625 0.03125 C 7.816406 0.03125 7.609375 0.0234375 7.390625 0.015625 C 7.171875 0.015625 6.957031 0.015625 6.75 0.015625 C 6.550781 0.015625 6.375 0.0078125 6.21875 0 C 6.070312 0 5.960938 0 5.890625 0 L 1.46875 0 L 1.46875 -0.046875 C 1.507812 -0.179688 1.546875 -0.351562 1.578125 -0.5625 C 1.617188 -0.78125 1.648438 -1.046875 1.671875 -1.359375 C 1.703125 -1.671875 1.722656 -2.046875 1.734375 -2.484375 C 1.753906 -2.921875 1.765625 -3.429688 1.765625 -4.015625 L 1.765625 -10.6875 C 1.765625 -11.269531 1.753906 -11.773438 1.734375 -12.203125 C 1.722656 -12.640625 1.703125 -13.015625 1.671875 -13.328125 C 1.648438 -13.648438 1.617188 -13.914062 1.578125 -14.125 C 1.546875 -14.34375 1.507812 -14.519531 1.46875 -14.65625 L 1.46875 -14.703125 L 3.921875 -14.703125 L 3.921875 -14.65625 C 3.878906 -14.519531 3.835938 -14.34375 3.796875 -14.125 C 3.765625 -13.914062 3.738281 -13.648438 3.71875 -13.328125 C 3.695312 -13.015625 3.675781 -12.640625 3.65625 -12.203125 C 3.632812 -11.773438 3.625 -11.269531 3.625 -10.6875 Z M 3.625 -0.90625 "/></g></g></g><g fill="#ffffff" fill-opacity="1"><g transform="translate(259.279304, 184.597327)"><g><path d="M 1.5625 -0.046875 C 1.601562 -0.179688 1.640625 -0.351562 1.671875 -0.5625 C 1.703125 -0.78125 1.734375 -1.046875 1.765625 -1.359375 C 1.796875 -1.671875 1.816406 -2.046875 1.828125 -2.484375 C 1.835938 -2.921875 1.84375 -3.429688 1.84375 -4.015625 L 1.84375 -10.6875 C 1.84375 -11.269531 1.835938 -11.773438 1.828125 -12.203125 C 1.816406 -12.640625 1.796875 -13.015625 1.765625 -13.328125 C 1.734375 -13.648438 1.703125 -13.914062 1.671875 -14.125 C 1.640625 -14.34375 1.601562 -14.519531 1.5625 -14.65625 L 1.5625 -14.703125 L 4.015625 -14.703125 L 4.015625 -14.65625 C 3.972656 -14.519531 3.929688 -14.34375 3.890625 -14.125 C 3.847656 -13.914062 3.816406 -13.648438 3.796875 -13.328125 C 3.773438 -13.015625 3.753906 -12.640625 3.734375 -12.203125 C 3.722656 -11.773438 3.71875 -11.269531 3.71875 -10.6875 L 3.71875 -4.015625 C 3.71875 -3.429688 3.722656 -2.921875 3.734375 -2.484375 C 3.753906 -2.046875 3.773438 -1.671875 3.796875 -1.359375 C 3.816406 -1.046875 3.847656 -0.78125 3.890625 -0.5625 C 3.929688 -0.351562 3.972656 -0.179688 4.015625 -0.046875 L 4.015625 0 L 1.5625 0 Z M 1.765625 -17.671875 C 1.765625 -17.804688 1.789062 -17.9375 1.84375 -18.0625 C 1.90625 -18.195312 1.976562 -18.3125 2.0625 -18.40625 C 2.15625 -18.5 2.265625 -18.570312 2.390625 -18.625 C 2.515625 -18.6875 2.648438 -18.71875 2.796875 -18.71875 C 3.085938 -18.71875 3.332031 -18.613281 3.53125 -18.40625 C 3.738281 -18.207031 3.84375 -17.960938 3.84375 -17.671875 C 3.84375 -17.523438 3.8125 -17.390625 3.75 -17.265625 C 3.695312 -17.140625 3.625 -17.03125 3.53125 -16.9375 C 3.4375 -16.84375 3.320312 -16.765625 3.1875 -16.703125 C 3.0625 -16.648438 2.929688 -16.625 2.796875 -16.625 C 2.648438 -16.625 2.515625 -16.648438 2.390625 -16.703125 C 2.265625 -16.765625 2.15625 -16.84375 2.0625 -16.9375 C 1.976562 -17.03125 1.90625 -17.140625 1.84375 -17.265625 C 1.789062 -17.390625 1.765625 -17.523438 1.765625 -17.671875 Z M 1.765625 -17.671875 "/></g></g></g><g fill="#ffffff" fill-opacity="1"><g transform="translate(138.07949, 218.771547)"><g><path d="M 0.078125 0 L 2.609375 -5.765625 L 2.734375 -5.765625 L 5.265625 0 L 4.328125 0 L 3.703125 -1.53125 L 1.171875 -1.53125 L 0.546875 0 Z M 1.296875 -1.859375 L 3.5625 -1.859375 L 2.4375 -4.609375 Z M 1.296875 -1.859375 "/></g></g></g><g fill="#ffffff" fill-opacity="1"><g transform="translate(144.828519, 218.771547)"><g><path d="M 2.609375 0.140625 L 0.078125 -5.625 L 1.015625 -5.625 L 2.875 -1.015625 L 4.5625 -5.625 L 4.984375 -5.625 L 2.75 0.140625 Z M 2.609375 0.140625 "/></g></g></g><g fill="#ffffff" fill-opacity="1"><g transform="translate(151.305547, 218.771547)"><g><path d="M 4.953125 -5.625 L 4.953125 -2.171875 C 4.953125 -1.648438 4.894531 -1.253906 4.78125 -0.984375 C 4.726562 -0.867188 4.644531 -0.734375 4.53125 -0.578125 C 4.425781 -0.429688 4.296875 -0.3125 4.140625 -0.21875 C 3.773438 0 3.3125 0.109375 2.75 0.109375 C 1.34375 0.109375 0.640625 -0.613281 0.640625 -2.0625 L 0.640625 -5.625 L 1.5 -5.625 L 1.5 -2 C 1.5 -1.832031 1.5 -1.695312 1.5 -1.59375 C 1.507812 -1.488281 1.539062 -1.34375 1.59375 -1.15625 C 1.65625 -0.976562 1.734375 -0.832031 1.828125 -0.71875 C 1.921875 -0.601562 2.066406 -0.5 2.265625 -0.40625 C 2.460938 -0.3125 2.703125 -0.265625 2.984375 -0.265625 C 4.046875 -0.265625 4.578125 -0.832031 4.578125 -1.96875 L 4.578125 -5.625 Z M 4.953125 -5.625 "/></g></g></g><g fill="#ffffff" fill-opacity="1"><g transform="translate(158.292576, 218.771547)"><g><path d="M 1.625 0 L 0.765625 0 L 0.765625 -5.625 L 1.625 -5.625 L 1.625 -2.859375 L 4.265625 -5.625 L 4.8125 -5.625 L 2.15625 -3.015625 L 5.171875 0 L 4.09375 0.109375 L 1.625 -2.765625 Z M 1.625 0 "/></g></g></g><g fill="#ffffff" fill-opacity="1"><g transform="translate(164.871602, 218.771547)"><g><path d="M 0.078125 0 L 2.609375 -5.765625 L 2.734375 -5.765625 L 5.265625 0 L 4.328125 0 L 3.703125 -1.53125 L 1.171875 -1.53125 L 0.546875 0 Z M 1.296875 -1.859375 L 3.5625 -1.859375 L 2.4375 -4.609375 Z M 1.296875 -1.859375 "/></g></g></g><g fill="#ffffff" fill-opacity="1"><g transform="translate(171.620631, 218.771547)"><g><path d="M 2.6875 0 L 1.859375 0 L 1.859375 -5.21875 C 1.671875 -5.257812 1.476562 -5.28125 1.28125 -5.28125 L 0.140625 -5.03125 L 0.078125 -5.625 L 4.46875 -5.625 L 4.421875 -5.03125 L 3.265625 -5.28125 C 3.066406 -5.28125 2.875 -5.257812 2.6875 -5.21875 Z M 2.6875 0 "/></g></g></g><g fill="#ffffff" fill-opacity="1"><g transform="translate(177.570657, 218.771547)"><g><path d="M 0.765625 0 L 0.765625 -5.625 L 1.59375 -5.625 L 1.59375 -0.453125 C 1.9375 -0.359375 2.21875 -0.3125 2.4375 -0.3125 L 3.96875 -0.5625 L 3.875 0 Z M 0.765625 0 "/></g></g></g><g fill="#ffffff" fill-opacity="1"><g transform="translate(183.112681, 218.771547)"><g><path d="M 1.546875 -5.625 L 1.546875 0 L 0.765625 0 L 0.765625 -5.625 Z M 1.546875 -5.625 "/></g></g></g><g fill="#ffffff" fill-opacity="1"><g transform="translate(186.827194, 218.771547)"><g><path d="M 1.625 0 L 0.765625 0 L 0.765625 -5.625 L 1.625 -5.625 L 1.625 -2.859375 L 4.265625 -5.625 L 4.8125 -5.625 L 2.15625 -3.015625 L 5.171875 0 L 4.09375 0.109375 L 1.625 -2.765625 Z M 1.625 0 "/></g></g></g><g fill="#ffffff" fill-opacity="1"><g transform="translate(193.406217, 218.771547)"><g/></g></g><g fill="#ffffff" fill-opacity="1"><g transform="translate(196.933727, 218.771547)"><g><path d="M 0.765625 0 L 0.765625 -5.625 L 2.375 -5.625 C 3.019531 -5.625 3.535156 -5.515625 3.921875 -5.296875 C 4.304688 -5.078125 4.5 -4.742188 4.5 -4.296875 C 4.5 -3.984375 4.390625 -3.710938 4.171875 -3.484375 C 3.953125 -3.253906 3.648438 -3.082031 3.265625 -2.96875 C 3.773438 -2.875 4.160156 -2.695312 4.421875 -2.4375 C 4.691406 -2.1875 4.828125 -1.910156 4.828125 -1.609375 C 4.828125 -1.316406 4.75 -1.0625 4.59375 -0.84375 C 4.445312 -0.632812 4.253906 -0.472656 4.015625 -0.359375 C 3.535156 -0.117188 3.039062 0 2.53125 0 Z M 1.59375 -3.046875 L 2.203125 -3.046875 C 2.710938 -3.046875 3.078125 -3.160156 3.296875 -3.390625 C 3.523438 -3.617188 3.640625 -3.910156 3.640625 -4.265625 C 3.640625 -4.492188 3.5625 -4.703125 3.40625 -4.890625 C 3.25 -5.078125 3.007812 -5.222656 2.6875 -5.328125 C 2.300781 -5.328125 1.9375 -5.269531 1.59375 -5.15625 Z M 1.59375 -2.8125 L 1.59375 -0.375 C 1.769531 -0.320312 2.046875 -0.296875 2.421875 -0.296875 C 2.804688 -0.296875 3.144531 -0.398438 3.4375 -0.609375 C 3.738281 -0.816406 3.890625 -1.109375 3.890625 -1.484375 C 3.890625 -1.859375 3.726562 -2.171875 3.40625 -2.421875 C 3.082031 -2.679688 2.691406 -2.8125 2.234375 -2.8125 Z M 1.59375 -2.8125 "/></g></g></g><g fill="#ffffff" fill-opacity="1"><g transform="translate(203.810265, 218.771547)"><g><path d="M 4.953125 -5.625 L 4.953125 -2.171875 C 4.953125 -1.648438 4.894531 -1.253906 4.78125 -0.984375 C 4.726562 -0.867188 4.644531 -0.734375 4.53125 -0.578125 C 4.425781 -0.429688 4.296875 -0.3125 4.140625 -0.21875 C 3.773438 0 3.3125 0.109375 2.75 0.109375 C 1.34375 0.109375 0.640625 -0.613281 0.640625 -2.0625 L 0.640625 -5.625 L 1.5 -5.625 L 1.5 -2 C 1.5 -1.832031 1.5 -1.695312 1.5 -1.59375 C 1.507812 -1.488281 1.539062 -1.34375 1.59375 -1.15625 C 1.65625 -0.976562 1.734375 -0.832031 1.828125 -0.71875 C 1.921875 -0.601562 2.066406 -0.5 2.265625 -0.40625 C 2.460938 -0.3125 2.703125 -0.265625 2.984375 -0.265625 C 4.046875 -0.265625 4.578125 -0.832031 4.578125 -1.96875 L 4.578125 -5.625 Z M 3.53125 -6.171875 C 3.457031 -6.253906 3.421875 -6.351562 3.421875 -6.46875 C 3.421875 -6.582031 3.457031 -6.679688 3.53125 -6.765625 C 3.613281 -6.847656 3.710938 -6.890625 3.828125 -6.890625 C 3.953125 -6.890625 4.054688 -6.847656 4.140625 -6.765625 C 4.222656 -6.679688 4.265625 -6.582031 4.265625 -6.46875 C 4.265625 -6.351562 4.222656 -6.253906 4.140625 -6.171875 C 4.054688 -6.085938 3.953125 -6.046875 3.828125 -6.046875 C 3.710938 -6.046875 3.613281 -6.085938 3.53125 -6.171875 Z M 1.75 -6.40625 L 1.75 -6.46875 C 1.75 -6.582031 1.785156 -6.679688 1.859375 -6.765625 C 1.941406 -6.847656 2.046875 -6.890625 2.171875 -6.890625 L 2.203125 -6.890625 L 2.328125 -6.875 L 2.453125 -6.78125 L 2.484375 -6.75 L 2.53125 -6.6875 C 2.539062 -6.675781 2.546875 -6.660156 2.546875 -6.640625 L 2.5625 -6.625 L 2.59375 -6.5 L 2.59375 -6.4375 C 2.59375 -6.425781 2.585938 -6.410156 2.578125 -6.390625 C 2.578125 -6.304688 2.535156 -6.226562 2.453125 -6.15625 C 2.367188 -6.082031 2.28125 -6.046875 2.1875 -6.046875 C 2.09375 -6.046875 2.023438 -6.054688 1.984375 -6.078125 C 1.953125 -6.097656 1.925781 -6.113281 1.90625 -6.125 C 1.8125 -6.195312 1.757812 -6.289062 1.75 -6.40625 Z M 1.75 -6.40625 "/></g></g></g><g fill="#ffffff" fill-opacity="1"><g transform="translate(210.797291, 218.771547)"><g><path d="M 1.59375 -2.6875 L 1.59375 0 L 0.765625 0 L 0.765625 -5.625 L 2.59375 -5.625 C 3.164062 -5.625 3.632812 -5.492188 4 -5.234375 C 4.375 -4.984375 4.5625 -4.648438 4.5625 -4.234375 C 4.5625 -3.816406 4.414062 -3.488281 4.125 -3.25 C 3.832031 -3.007812 3.4375 -2.84375 2.9375 -2.75 L 5.203125 0 L 4.21875 0.125 L 2.25 -2.6875 Z M 1.59375 -2.9375 L 2.140625 -2.9375 C 3.160156 -2.9375 3.671875 -3.335938 3.671875 -4.140625 C 3.671875 -4.285156 3.632812 -4.441406 3.5625 -4.609375 C 3.4375 -4.960938 3.160156 -5.195312 2.734375 -5.3125 C 2.347656 -5.3125 1.96875 -5.265625 1.59375 -5.171875 Z M 1.59375 -2.9375 "/></g></g></g><g fill="#ffffff" fill-opacity="1"><g transform="translate(217.622819, 218.771547)"><g><path d="M 3.328125 -5.734375 C 4.054688 -5.734375 4.660156 -5.488281 5.140625 -5 C 5.628906 -4.519531 5.875 -3.847656 5.875 -2.984375 C 5.875 -2.429688 5.773438 -1.945312 5.578125 -1.53125 C 5.390625 -1.113281 5.140625 -0.789062 4.828125 -0.5625 C 4.222656 -0.113281 3.550781 0.109375 2.8125 0.109375 C 2.082031 0.109375 1.476562 -0.132812 1 -0.625 C 0.519531 -1.125 0.28125 -1.800781 0.28125 -2.65625 C 0.28125 -3.101562 0.34375 -3.503906 0.46875 -3.859375 C 0.601562 -4.222656 0.773438 -4.519531 0.984375 -4.75 C 1.191406 -4.976562 1.429688 -5.171875 1.703125 -5.328125 C 2.203125 -5.597656 2.742188 -5.734375 3.328125 -5.734375 Z M 1.609375 -0.96875 C 1.765625 -0.71875 1.960938 -0.519531 2.203125 -0.375 C 2.453125 -0.238281 2.738281 -0.171875 3.0625 -0.171875 C 3.394531 -0.171875 3.6875 -0.253906 3.9375 -0.421875 C 4.195312 -0.585938 4.394531 -0.804688 4.53125 -1.078125 C 4.820312 -1.609375 4.96875 -2.175781 4.96875 -2.78125 C 4.96875 -3.539062 4.816406 -4.148438 4.515625 -4.609375 C 4.179688 -5.117188 3.628906 -5.375 2.859375 -5.375 C 2.316406 -5.1875 1.898438 -4.859375 1.609375 -4.390625 C 1.328125 -3.921875 1.1875 -3.382812 1.1875 -2.78125 C 1.1875 -2.0625 1.328125 -1.457031 1.609375 -0.96875 Z M 1.609375 -0.96875 "/></g></g></g><g fill="#ffffff" fill-opacity="1"><g transform="translate(225.187851, 218.771547)"><g><path d="M 1.375 -4.65625 C 1.375 -4.40625 1.472656 -4.171875 1.671875 -3.953125 C 1.867188 -3.742188 2.109375 -3.554688 2.390625 -3.390625 C 2.671875 -3.234375 2.945312 -3.070312 3.21875 -2.90625 C 3.5 -2.738281 3.734375 -2.53125 3.921875 -2.28125 C 4.117188 -2.039062 4.21875 -1.773438 4.21875 -1.484375 C 4.21875 -1.015625 4.046875 -0.628906 3.703125 -0.328125 C 3.367188 -0.0351562 2.90625 0.109375 2.3125 0.109375 C 1.726562 0.109375 1.15625 -0.00390625 0.59375 -0.234375 L 0.59375 -0.625 C 1.164062 -0.34375 1.65625 -0.203125 2.0625 -0.203125 C 2.46875 -0.203125 2.78125 -0.300781 3 -0.5 C 3.226562 -0.695312 3.34375 -0.96875 3.34375 -1.3125 C 3.34375 -1.550781 3.25 -1.769531 3.0625 -1.96875 C 2.875 -2.164062 2.644531 -2.332031 2.375 -2.46875 C 2.113281 -2.613281 1.847656 -2.765625 1.578125 -2.921875 C 1.316406 -3.078125 1.09375 -3.269531 0.90625 -3.5 C 0.71875 -3.738281 0.625 -4.023438 0.625 -4.359375 C 0.625 -4.691406 0.769531 -5.003906 1.0625 -5.296875 C 1.363281 -5.585938 1.8125 -5.734375 2.40625 -5.734375 C 2.789062 -5.734375 3.28125 -5.644531 3.875 -5.46875 L 3.78125 -4.890625 C 3.019531 -5.210938 2.363281 -5.375 1.8125 -5.375 C 1.519531 -5.238281 1.375 -5 1.375 -4.65625 Z M 1.375 -4.65625 "/></g></g></g><g fill="#ffffff" fill-opacity="1"><g transform="translate(231.316373, 218.771547)"><g><path d="M 4.953125 -5.625 L 4.953125 -2.171875 C 4.953125 -1.648438 4.894531 -1.253906 4.78125 -0.984375 C 4.726562 -0.867188 4.644531 -0.734375 4.53125 -0.578125 C 4.425781 -0.429688 4.296875 -0.3125 4.140625 -0.21875 C 3.773438 0 3.3125 0.109375 2.75 0.109375 C 1.34375 0.109375 0.640625 -0.613281 0.640625 -2.0625 L 0.640625 -5.625 L 1.5 -5.625 L 1.5 -2 C 1.5 -1.832031 1.5 -1.695312 1.5 -1.59375 C 1.507812 -1.488281 1.539062 -1.34375 1.59375 -1.15625 C 1.65625 -0.976562 1.734375 -0.832031 1.828125 -0.71875 C 1.921875 -0.601562 2.066406 -0.5 2.265625 -0.40625 C 2.460938 -0.3125 2.703125 -0.265625 2.984375 -0.265625 C 4.046875 -0.265625 4.578125 -0.832031 4.578125 -1.96875 L 4.578125 -5.625 Z M 4.953125 -5.625 "/></g></g></g></svg>